#!OML:ASF F:\VICON\USERDATA\INSTALL\rory3\rory3.ASF
:FULLY-SPECIFIED
:DEGREES
448
root 0.559575 18.0043 -4.13806 173.404 -23.131 178.79
lowerback 17.0311 0.786994 -3.48185
upperback -1.08771 0.366145 0.774816
thorax -10.829 0.382166 2.73875
lowerneck -2.63382 -8.09041 -7.28158
upperneck 9.91511 -11.3313 5.91671
head 4.14417 -5.70342 2.40574
rclavicle -3.01966e-014 -6.55989e-015
rhumerus -23.4889 -13.3971 -77.9903
rradius 24.5414
rwrist 1.46054
rhand -14.5688 5.71402
rfingers 7.12502
rthumb 11.5806 -23.946
lclavicle -3.01966e-014 -6.55989e-015
lhumerus -43.8052 10.4516 75.3153
lradius 63.0715
lwrist 27.0093
lhand -9.69358 49.6311
lfingers 7.12502
lthumb 16.2787 78.9677
rfemur -5.98326 -13.8835 19.3614
rtibia 65.6321
rfoot 5.02879 5.61233
rtoes -0.804856
lfemur -8.34976 -1.77808 -28.6938
ltibia 22.001
lfoot -3.23584 7.70642
ltoes 11.7518
449
root 0.595952 18.0038 -4.07754 173.103 -21.942 179.357
lowerback 16.8574 1.21236 -3.37167
upperback -0.850479 0.997485 1.18721
thorax -10.5178 0.675515 2.96493
lowerneck -3.76587 -8.20247 -7.65332
upperneck 10.4841 -11.3843 5.8204
head 4.52548 -5.71599 2.36686
rclavicle 7.28794e-014 2.74323e-014
rhumerus -21.0484 -12.3422 -78.9054
rradius 24.9096
rwrist 1.91995
rhand -14.3234 5.52705
rfingers 7.12502
rthumb 11.8172 -24.1195
lclavicle 7.28794e-014 2.74323e-014
lhumerus -41.9446 10.635 76.2592
lradius 64.0016
lwrist 24.9868
lhand -8.28669 48.8358
lfingers 7.12502
lthumb 17.633 78.0563
rfemur -5.07077 -12.8262 20.5499
rtibia 64.1272
rfoot 3.79639 4.00384
rtoes 8.47165
lfemur -8.90249 -1.41642 -27.9147
ltibia 22.4602
lfoot -3.09567 8.2503
ltoes 9.88808
450
root 0.624238 17.9988 -4.01816 172.434 -20.7983 180.555
lowerback 16.9785 1.38639 -2.55443
upperback -0.962738 1.43398 1.60732
thorax -10.7364 0.854549 2.8459
lowerneck -3.93918 -8.01913 -7.44048
upperneck 11.099 -11.1553 5.45355
head 4.69411 -5.61917 2.2207
rclavicle 2.17793e-014 3.93594e-014
rhumerus -19.4897 -10.711 -80.037
rradius 25.4168
rwrist 1.63831
rhand -14.4246 5.93198
rfingers 7.12502
rthumb 11.7197 -23.7202
lclavicle 2.17793e-014 3.93594e-014
lhumerus -41.6014 9.57495 76.9793
lradius 66.0604
lwrist 24.9521
lhand -8.8387 48.3027
lfingers 7.12502
lthumb 17.1017 77.5701
rfemur -3.83351 -11.9023 22.2963
rtibia 62.3821
rfoot 5.95624 3.9877
rtoes 2.7341
lfemur -9.3432 -1.30923 -26.4696
ltibia 23.3915
lfoot -3.84479 9.03653
ltoes 14.2873
451
root 0.652583 17.9978 -3.97162 171.258 -20.4262 182.239
lowerback 16.787 1.26371 -1.415
upperback -0.511522 1.53181 2.306
thorax -10.12 0.831323 2.93897
lowerneck -4.36955 -7.95165 -7.42418
upperneck 11.1191 -10.9911 5.23768
head 4.74869 -5.53417 2.14622
rclavicle 1.87355e-014 -1.55052e-014
rhumerus -17.2641 -9.01614 -81.0394
rradius 25.8403
rwrist 1.25549
rhand -14.6997 6.44583
rfingers 7.12502
rthumb 11.4544 -23.2213
lclavicle 1.87355e-014 -1.55052e-014
lhumerus -40.7122 8.98735 77.7947
lradius 67.9974
lwrist 24.1502
lhand -9.05831 48.1675
lfingers 7.12502
lthumb 16.8903 77.453
rfemur -1.90024 -11.609 24.4626
rtibia 60.2655
rfoot 6.2929 3.05356
rtoes 0.14813
lfemur -9.40899 -1.58868 -24.5796
ltibia 24.4962
lfoot -4.59201 9.25865
ltoes 17.6354
452
root 0.680008 17.9934 -3.89359 170.867 -18.5691 183.093
lowerback 17.4937 1.7678 -0.387721
upperback -0.929401 2.43995 2.44296
thorax -11.0108 1.21871 2.25832
lowerneck -3.99144 -8.00442 -7.63507
upperneck 11.2715 -11.111 5.30145
head 4.75552 -5.61342 2.20166
rclavicle -4.00427e-014 2.48481e-014
rhumerus -16.5541 -8.21758 -81.9965
rradius 26.7026
rwrist 1.40607
rhand -14.7859 6.71151
rfingers 7.12502
rthumb 11.3712 -22.9602
lclavicle -4.00427e-014 2.48481e-014
lhumerus -40.5897 7.74563 78.0998
lradius 69.5547
lwrist 22.9564
lhand -10.451 49.6386
lfingers 7.12502
lthumb 15.5493 79.0335
rfemur -0.8599 -9.89988 25.9882
rtibia 58.296
rfoot 7.17065 2.09681
rtoes -0.521356
lfemur -10.0892 -1.0445 -23.401
ltibia 25.4446
lfoot -4.83359 10.2078
ltoes 16.8208
453
root 0.703731 17.9907 -3.81844 170.375 -17.5595 183.607
lowerback 17.7787 1.94788 0.0686014
upperback -0.841227 2.78373 2.67382
thorax -11.0823 1.35306 2.15586
lowerneck -4.43736 -7.90533 -7.86567
upperneck 11.7178 -10.9596 5.33628
head 4.97223 -5.54089 2.23069
rclavicle -3.96203e-014 7.7526e-015
rhumerus -15.2576 -7.52866 -82.8972
rradius 27.9327
rwrist 1.91369
rhand -14.3311 6.70415
rfingers 7.12502
rthumb 11.8098 -22.9429
lclavicle -3.96203e-014 7.7526e-015
lhumerus -40.0352 6.78373 78.6563
lradius 71.3837
lwrist 22.2275
lhand -13.009 52.0806
lfingers 7.12502
lthumb 13.0845 81.6501
rfemur 0.458209 -8.98587 26.9184
rtibia 56.5031
rfoot 7.56697 1.2815
rtoes 0.98608
lfemur -9.94945 -0.786758 -22.6885
ltibia 25.2924
lfoot -4.46086 10.8005
ltoes 15.6937
454
root 0.710457 17.9858 -3.73699 170.423 -16.4848 183.874
lowerback 17.7253 2.12471 0.524212
upperback -1.0438 3.13111 2.72135
thorax -11.2722 1.49354 1.85458
lowerneck -3.7813 -7.98957 -7.39882
upperneck 11.3286 -11.0826 4.85248
head 4.69791 -5.62117 2.04024
rclavicle 3.87506e-014 1.49089e-014
rhumerus -13.9108 -4.93036 -83.947
rradius 28.4599
rwrist 0.240233
rhand -14.4313 6.51824
rfingers 7.12502
rthumb 11.7132 -23.1343
lclavicle 3.87506e-014 1.49089e-014
lhumerus -40.0195 5.22841 79.1445
lradius 73.515
lwrist 22.1374
lhand -17.0179 55.647
lfingers 7.12502
lthumb 9.21809 85.4255
rfemur 1.24134 -8.10853 27.4626
rtibia 54.8646
rfoot 7.68147 1.06823
rtoes 1.86158
lfemur -10.0914 -0.628683 -22.2916
ltibia 24.8893
lfoot -4.24559 11.6255
ltoes 16.6064
455
root 0.640991 17.976 -3.60118 173.406 -17.7007 180.04
lowerback 16.1231 1.79225 -1.89315
upperback -1.73303 2.13488 1.35847
thorax -11.1174 1.16612 2.0199
lowerneck -3.66157 -7.7825 -7.15624
upperneck 11.4958 -10.8258 4.63505
head 4.68769 -5.50557 1.95802
rclavicle 4.50123e-014 1.43125e-014
rhumerus -12.6326 -2.88619 -85.038
rradius 29.1598
rwrist -0.6056
rhand -14.6255 6.50973
rfingers 7.12502
rthumb 11.5259 -23.1534
lclavicle 4.50123e-014 1.43125e-014
lhumerus -39.6808 4.2802 79.4546
lradius 75.0192
lwrist 21.0152
lhand -15.8134 53.564
lfingers 7.12502
lthumb 10.3802 83.2878
rfemur 0.25307 -9.47527 22.5356
rtibia 53.6332
rfoot 7.30011 2.77519
rtoes 1.93944
lfemur -11.8563 -1.35581 -26.9205
ltibia 24.1615
lfoot -3.7518 11.8651
ltoes 18.6156
456
root 0.653885 17.9631 -3.51657 173.405 -17.158 180.006
lowerback 15.6085 1.78232 -2.06659
upperback -1.37045 2.10281 1.53981
thorax -10.4271 1.15468 2.3381
lowerneck -4.31711 -7.62044 -7.10579
upperneck 11.4701 -10.5128 4.46432
head 4.75881 -5.33707 1.89422
rclavicle -7.29291e-015 -1.74931e-014
rhumerus -10.6225 -1.05836 -85.8255
rradius 29.9872
rwrist -0.868751
rhand -14.6527 6.46867
rfingers 7.12502
rthumb 11.4997 -23.1959
lclavicle -7.29291e-015 -1.74931e-014
lhumerus -39.063 3.64687 79.8752
lradius 76.7166
lwrist 19.6885
lhand -16.9485 54.5122
lfingers 7.12502
lthumb 9.28499 84.2877
rfemur 1.21607 -8.88175 22.7235
rtibia 51.8818
rfoot 6.09259 2.77779
rtoes 2.51923
lfemur -11.9788 -1.31638 -26.8948
ltibia 23.8216
lfoot -3.6859 12.3871
ltoes 20.3955
